# xmcd CD database file
#
# Track frame offsets:
#	150
#	23206
#	40191
#	52558
#	67934
#	87585
#	114881
#	126255
#	136531
#	155995
#
# Disc length: 2301 seconds
#
# Revision: 0
# Processed by: cddbd v1.5.1PL0 Copyright (c) Steve Scherf et al.
# Submitted via: CDex 1.51
#
DISCID=7808fb0a
DTITLE=Johnny Martin - Save As
DYEAR=2004
DGENRE=Jazz
TTITLE0=Another Day in LA
TTITLE1=You'll Wish You'd Never Been Born
TTITLE2=The Dummy Song
TTITLE3=I Believe
TTITLE4=Zoot Suit Riot
TTITLE5=Route 66
TTITLE6=Whistle Stop
TTITLE7=Bim Bam
TTITLE8=Stray Cat Strut
TTITLE9=Out West
EXTD=YEAR: 2004
EXTT0=
EXTT1=
EXTT2=
EXTT3=
EXTT4=
EXTT5=
EXTT6=
EXTT7=
EXTT8=
EXTT9=
PLAYORDER=
